<svg width="32" height="31" viewBox="0 0 32 31" fill="none" xmlns="http://www.w3.org/2000/svg">
<path d="M30.5482 15.923L21.3765 6.90166C21.0784 6.60846 20.5939 6.60846 20.2958 6.90166C19.9977 7.19485 19.9977 7.67148 20.2958 7.96468L28.1621 15.702H3.25625C2.83435 15.702 2.49194 16.0388 2.49194 16.4538C2.49194 16.8688 2.83435 17.2056 3.25625 17.2056H28.1621L20.2958 24.9429C19.9977 25.2361 19.9977 25.7127 20.2958 26.0059C20.4456 26.1533 20.6413 26.2254 20.8369 26.2254C21.0326 26.2254 21.2282 26.1518 21.378 26.0059L30.5498 16.9845C30.8479 16.6913 30.8479 16.2147 30.5498 15.9215L30.5482 15.923Z" fill="white"/>
</svg>
