<svg width="87" height="100" viewBox="0 0 87 100" fill="none" xmlns="http://www.w3.org/2000/svg">
<path d="M56.6673 0H16.6668C7.46342 0 0 7.46342 0 16.6668V73.3341C0 82.5376 7.46342 90.001 16.6668 90.001H53.3339V79.6309C49.2172 75.4208 46.6672 69.6708 46.6672 63.334C46.6672 50.4672 57.1373 40.0004 70.0008 40.0004C71.1341 40.0004 72.2408 40.1104 73.3341 40.2671V16.6668C73.3341 7.46342 65.8707 0 56.6673 0ZM33.9337 73.3341H16.6668C14.8235 73.3341 13.3335 71.8408 13.3335 70.0008C13.3335 68.1607 14.8235 66.6674 16.6668 66.6674H33.9337C35.7771 66.6674 37.2671 68.1607 37.2671 70.0008C37.2671 71.8408 35.7771 73.3341 33.9337 73.3341ZM34.7337 56.6673H16.6668C14.8235 56.6673 13.3335 55.1739 13.3335 53.3339C13.3335 51.4939 14.8235 50.0005 16.6668 50.0005H34.7337C36.5771 50.0005 38.0671 51.4939 38.0671 53.3339C38.0671 55.1739 36.5771 56.6673 34.7337 56.6673ZM44.8338 40.0004H16.6668C14.8235 40.0004 13.3335 38.5071 13.3335 36.6671C13.3335 34.827 14.8235 33.3337 16.6668 33.3337H44.8338C46.6772 33.3337 48.1672 34.827 48.1672 36.6671C48.1672 38.5071 46.6772 40.0004 44.8338 40.0004ZM56.6673 23.3336H16.6668C14.8235 23.3336 13.3335 21.8402 13.3335 20.0002C13.3335 18.1602 14.8235 16.6668 16.6668 16.6668H56.6673C58.5106 16.6668 60.0007 18.1602 60.0007 20.0002C60.0007 21.8402 58.5106 23.3336 56.6673 23.3336Z" fill="white"/>
<path d="M70.0008 86.6676C66.4174 86.6676 63.034 85.8343 60.0007 84.3909V96.6611C60.0007 99.3244 62.9674 100.911 65.1841 99.4344L70.0008 96.2211L74.8175 99.4344C77.0342 100.911 80.0009 99.3244 80.0009 96.6611V84.3909C76.9675 85.8343 73.5842 86.6676 70.0008 86.6676Z" fill="white"/>
<path d="M70.0008 80.0009C79.2056 80.0009 86.6677 72.5389 86.6677 63.334C86.6677 54.1292 79.2056 46.6672 70.0008 46.6672C60.796 46.6672 53.334 54.1292 53.334 63.334C53.334 72.5389 60.796 80.0009 70.0008 80.0009Z" fill="white"/>
</svg>
