
<svg width="17" height="10" viewBox="0 0 17 10" fill="none" xmlns="http://www.w3.org/2000/svg">
<path d="M8.14869 9.67741C7.96346 9.67771 7.77993 9.64145 7.60877 9.57047C7.43761 9.49949 7.28219 9.39509 7.15129 9.26369L0.413278 2.5083C0.148752 2.24308 0 1.88337 0 1.5083C0 1.13323 0.148752 0.773522 0.413278 0.508306C0.677803 0.24309 1.03657 0.0941623 1.41067 0.0941623C1.78476 0.0941623 2.14353 0.24309 2.40806 0.508306L8.15209 6.26754L13.9922 0.414144C14.1231 0.282822 14.2785 0.178441 14.4496 0.107371C14.6208 0.0362998 14.8043 0 14.9895 0C15.1748 0 15.3581 0.0362998 15.5292 0.107371C15.7004 0.178441 15.856 0.282822 15.9869 0.414144C16.1179 0.545465 16.2218 0.701019 16.2927 0.872599C16.3636 1.04418 16.4 1.22842 16.4 1.41414C16.4 1.59986 16.3636 1.78367 16.2927 1.95525C16.2218 2.12683 16.1179 2.28281 15.9869 2.41413L9.14948 9.26923C9.01768 9.40002 8.86142 9.50337 8.68966 9.57345C8.51791 9.64353 8.33412 9.67876 8.14869 9.67741Z" fill="#878787"/>
</svg>
