<svg width="7" height="10" viewBox="0 0 7 10" fill="none" xmlns="http://www.w3.org/2000/svg">
<path d="M6.08693 5.03129C6.08712 5.14423 6.06431 5.25614 6.01967 5.36051C5.97502 5.46487 5.90935 5.55964 5.82671 5.63945L1.57768 9.748C1.41086 9.9093 1.18461 10 0.948696 10C0.712782 10 0.486532 9.9093 0.319716 9.748C0.152899 9.58671 0.0592265 9.36794 0.0592265 9.13984C0.0592265 8.91173 0.152899 8.69297 0.319716 8.53167L3.94218 5.02922L0.260489 1.4682C0.17789 1.38833 0.112236 1.2936 0.0675339 1.18925C0.0228316 1.0849 -3.94584e-07 0.972981 -3.99521e-07 0.860034C-4.04458e-07 0.747087 0.0228316 0.635296 0.0675339 0.530946C0.112236 0.426597 0.17789 0.331735 0.260489 0.251869C0.343088 0.172004 0.440929 0.108652 0.54885 0.0654287C0.656771 0.0222063 0.772656 -3.37739e-08 0.889469 -3.888e-08C1.00628 -4.3986e-08 1.1219 0.0222063 1.22982 0.0654287C1.33774 0.108652 1.43585 0.172004 1.51845 0.251869L5.83019 4.42105C5.91246 4.50141 5.97746 4.59669 6.02154 4.70142C6.06562 4.80615 6.08778 4.91822 6.08693 5.03129Z" fill="#DCA264"/>
</svg>
