<svg width="17" height="10" viewBox="0 0 17 10" fill="none" xmlns="http://www.w3.org/2000/svg">
<path d="M8.14869 8.01086e-05C7.96346 -0.000222206 7.77993 0.0360451 7.60877 0.107024C7.43761 0.178004 7.28219 0.282403 7.15129 0.413797L0.413278 7.16919C0.148752 7.43441 0 7.79412 0 8.16919C0 8.54426 0.148752 8.90397 0.413278 9.16918C0.677803 9.4344 1.03657 9.58333 1.41067 9.58333C1.78476 9.58333 2.14353 9.4344 2.40806 9.16918L8.15209 3.40995L13.9922 9.26335C14.1231 9.39467 14.2785 9.49905 14.4496 9.57012C14.6208 9.64119 14.8043 9.67749 14.9895 9.67749C15.1748 9.67749 15.3581 9.64119 15.5292 9.57012C15.7004 9.49905 15.856 9.39467 15.9869 9.26335C16.1179 9.13203 16.2218 8.97647 16.2927 8.80489C16.3636 8.63331 16.4 8.44907 16.4 8.26335C16.4 8.07764 16.3636 7.89382 16.2927 7.72224C16.2218 7.55066 16.1179 7.39468 15.9869 7.26336L9.14948 0.408258C9.01768 0.27747 8.86142 0.174123 8.68966 0.104042C8.51791 0.0339613 8.33412 -0.00127411 8.14869 8.01086e-05Z" fill="#878787"/>
</svg>
