<svg width="14" height="23" viewBox="0 0 14 23" fill="none" xmlns="http://www.w3.org/2000/svg">
<path d="M13.9999 11.572C14.0004 11.8317 13.9479 12.0891 13.8452 12.3292C13.7426 12.5692 13.5915 12.7872 13.4014 12.9707L3.62866 22.4204C3.24498 22.7914 2.7246 23 2.182 23C1.6394 23 1.11902 22.7914 0.735347 22.4204C0.351669 22.0494 0.136221 21.5463 0.136221 21.0216C0.136221 20.497 0.351669 19.9938 0.735347 19.6228L9.06702 11.5672L0.599125 3.37686C0.409147 3.19317 0.258143 2.97528 0.155328 2.73528C0.0525127 2.49528 -9.07542e-07 2.23786 -9.18897e-07 1.97808C-9.30253e-07 1.7183 0.0525126 1.46118 0.155328 1.22118C0.258143 0.981173 0.409147 0.762991 0.599125 0.5793C0.789103 0.395609 1.01414 0.249901 1.26235 0.150488C1.51057 0.0510749 1.77711 -7.768e-08 2.04578 -8.94239e-08C2.31445 -1.01168e-07 2.58037 0.0510749 2.82859 0.150488C3.07681 0.249901 3.30246 0.395609 3.49243 0.5793L13.4094 10.1684C13.5987 10.3533 13.7482 10.5724 13.8495 10.8133C13.9509 11.0542 14.0019 11.3119 13.9999 11.572Z" fill="#DCA264"/>
</svg>
