<svg width="8" height="13" viewBox="0 0 8 13" fill="none" xmlns="http://www.w3.org/2000/svg">
<path d="M7.2444 6.37901L1.6444 0.844014C1.55607 0.756868 1.43698 0.708008 1.3129 0.708008C1.18882 0.708008 1.06973 0.756868 0.9814 0.844014C0.937801 0.886997 0.90318 0.938217 0.879549 0.994697C0.855919 1.05118 0.84375 1.11179 0.84375 1.17301C0.84375 1.23424 0.855919 1.29485 0.879549 1.35133C0.90318 1.40781 0.937801 1.45903 0.9814 1.50201L6.2444 6.70801L0.9824 11.914C0.938801 11.957 0.90418 12.0082 0.880549 12.0647C0.856919 12.1212 0.84475 12.1818 0.84475 12.243C0.84475 12.3042 0.856919 12.3649 0.880549 12.4213C0.90418 12.4778 0.938801 12.529 0.9824 12.572C1.07073 12.6592 1.18982 12.708 1.3139 12.708C1.43798 12.708 1.55707 12.6592 1.6454 12.572L7.2444 7.03701C7.28815 6.99401 7.3229 6.94273 7.34662 6.88616C7.37034 6.82959 7.38256 6.76886 7.38256 6.70751C7.38256 6.64617 7.37034 6.58544 7.34662 6.52887C7.3229 6.4723 7.28815 6.42101 7.2444 6.37801V6.37901Z" fill="white"/>
</svg>
