<svg width="38" height="48" viewBox="0 0 38 48" fill="none" xmlns="http://www.w3.org/2000/svg">
<path fill-rule="evenodd" clip-rule="evenodd" d="M19 4.00688C27.2812 4.00688 33.9946 10.7226 33.9946 19.0069C33.9946 27.2912 27.2813 34.0069 19 34.0069C10.7187 34.0069 4.00542 27.2912 4.00542 19.0069C4.00542 10.7226 10.7187 4.00688 19 4.00688ZM22.988 43.9096C29.5311 44.1476 34.3486 44.9571 34.3486 45.9192C34.3486 47.0684 27.4768 48 19 48C10.5232 48 3.65135 47.0684 3.65135 45.9193C3.65135 44.9572 8.46891 44.1477 15.0119 43.9097L17.6571 46.5558C18.3979 47.2969 19.6023 47.2969 20.3431 46.5558L22.988 43.9096ZM32.4513 5.55068C25.0531 -1.85023 12.947 -1.85023 5.54867 5.55068C-1.84956 12.9517 -1.84956 25.0622 5.54867 32.4631L18.6466 45.5658C18.8413 45.7605 19.1588 45.7605 19.3535 45.5658L32.4514 32.4631C39.8495 25.0622 39.8495 12.9517 32.4513 5.55068ZM19 2.60688C9.94577 2.60688 2.60593 9.94938 2.60593 19.0068C2.60593 28.0642 9.94577 35.4067 19 35.4067C28.0542 35.4067 35.3941 28.0642 35.3941 19.0068C35.3941 9.94938 28.0541 2.60688 19 2.60688ZM19 6.48258C15.5428 6.48258 12.4129 7.88448 10.1472 10.151C7.88152 12.4174 6.48023 15.5486 6.48023 19.0069C6.48023 22.4653 7.88162 25.5964 10.1472 27.8629C12.4129 30.1294 15.5428 31.5312 19 31.5312C22.4571 31.5312 25.5871 30.1293 27.8528 27.8629C30.1185 25.5965 31.5199 22.4654 31.5199 19.0069C31.5199 15.5486 30.1185 12.4174 27.8528 10.151C25.5871 7.88448 22.457 6.48258 19 6.48258Z" fill="#DAAA29"/>
</svg>
