<svg width="30" height="39" viewBox="0 0 30 39" fill="none" xmlns="http://www.w3.org/2000/svg">
<path fill-rule="evenodd" clip-rule="evenodd" d="M15 3.19514C21.5378 3.19514 26.8378 8.55033 26.8378 15.1564C26.8378 21.7624 21.5379 27.1176 15 27.1176C8.46213 27.1176 3.16218 21.7624 3.16218 15.1564C3.16218 8.55033 8.46213 3.19514 15 3.19514ZM18.1485 35.0141C23.314 35.2039 27.1173 35.8494 27.1173 36.6166C27.1173 37.533 21.6922 38.2759 15 38.2759C8.30776 38.2759 2.88265 37.533 2.88265 36.6167C2.88265 35.8495 6.68598 35.204 11.8515 35.0142L13.9398 37.1242C14.5247 37.7152 15.4755 37.7152 16.0603 37.1242L18.1485 35.0141ZM25.6195 4.42619C19.7788 -1.4754 10.2213 -1.4754 4.38053 4.42619C-1.46018 10.3279 -1.46018 19.9849 4.38053 25.8865L14.721 36.3348C14.8747 36.4901 15.1254 36.4901 15.2791 36.3348L25.6195 25.8865C31.4602 19.9849 31.4602 10.3279 25.6195 4.42619ZM15 2.07876C7.85193 2.07876 2.05731 7.93377 2.05731 15.1563C2.05731 22.3788 7.85193 28.2338 15 28.2338C22.1481 28.2338 27.9427 22.3788 27.9427 15.1563C27.9427 7.93377 22.148 2.07876 15 2.07876ZM15.5524 8.37371V7.90395C15.5524 7.59567 15.3051 7.34576 15 7.34576C14.6949 7.34576 14.4476 7.59567 14.4476 7.90395V8.37371C14.4476 8.68199 14.6949 8.9319 15 8.9319C15.3051 8.9319 15.5524 8.68199 15.5524 8.37371ZM15 16.3372C15.2265 16.3372 15.4379 16.272 15.617 16.1593L17.2439 17.1083C17.5072 17.2625 17.8445 17.1717 17.997 16.9056C18.1496 16.6395 18.0597 16.2987 17.7963 16.1446L16.168 15.1946C16.1684 15.1819 16.1687 15.1691 16.1687 15.1563C16.1687 14.7061 15.9193 14.3147 15.5525 14.1155V11.0659C15.5525 10.7576 15.3052 10.5077 15.0001 10.5077C14.695 10.5077 14.4476 10.7576 14.4476 11.0659V14.1155C14.0808 14.3147 13.8314 14.7061 13.8314 15.1563C13.8313 15.8085 14.3545 16.3372 15 16.3372ZM10.644 9.96558L10.3153 9.63346C10.0996 9.41553 9.74984 9.41553 9.53408 9.63346C9.31839 9.8514 9.31839 10.2048 9.53408 10.4227L9.86278 10.7549C10.0785 10.9729 10.4282 10.9729 10.644 10.7549C10.8597 10.537 10.8597 10.1835 10.644 9.96558ZM8.28732 14.5982H7.82241C7.51731 14.5982 7.26998 14.8481 7.26998 15.1564C7.26998 15.4646 7.51731 15.7145 7.82241 15.7145H8.28732C8.59242 15.7145 8.83975 15.4646 8.83975 15.1564C8.83975 14.8481 8.59234 14.5982 8.28732 14.5982ZM9.86278 19.5578L9.53408 19.89C9.31839 20.1079 9.31839 20.4613 9.53408 20.6793C9.74977 20.8973 10.0995 20.8973 10.3153 20.6793L10.644 20.3471C10.8597 20.1292 10.8597 19.7758 10.644 19.5578C10.4283 19.3398 10.0785 19.3398 9.86278 19.5578ZM14.4476 21.939V22.4088C14.4476 22.717 14.6949 22.9669 15 22.9669C15.3051 22.9669 15.5524 22.717 15.5524 22.4088V21.939C15.5524 21.6307 15.3051 21.3808 15 21.3808C14.6949 21.3808 14.4476 21.6307 14.4476 21.939ZM19.356 20.347L19.6847 20.6792C19.9004 20.8972 20.2501 20.8972 20.4659 20.6792C20.6816 20.4613 20.6816 20.1079 20.4659 19.8899L20.1371 19.5577C19.9214 19.3397 19.5717 19.3397 19.356 19.5577C19.1402 19.7757 19.1402 20.1291 19.356 20.347ZM21.7127 15.7145H22.1776C22.4827 15.7145 22.73 15.4646 22.73 15.1564C22.73 14.8481 22.4827 14.5982 22.1776 14.5982H21.7127C21.4076 14.5982 21.1602 14.8481 21.1602 15.1564C21.1602 15.4646 21.4076 15.7145 21.7127 15.7145ZM20.1371 10.7549L20.4659 10.4227C20.6816 10.2048 20.6816 9.8514 20.4659 9.63346C20.2502 9.41553 19.9005 9.41553 19.6847 9.63346L19.356 9.96558C19.1403 10.1835 19.1403 10.5369 19.356 10.7549C19.5717 10.9729 19.9214 10.9729 20.1371 10.7549ZM15 5.1693C12.2707 5.1693 9.79964 6.28719 8.01095 8.09453C6.22225 9.90179 5.11597 12.3987 5.11597 15.1564C5.11597 17.9141 6.22233 20.4109 8.01095 22.2183C9.79964 24.0256 12.2707 25.1434 15 25.1434C17.7293 25.1434 20.2003 24.0255 21.989 22.2183C23.7777 20.411 24.8841 17.9142 24.8841 15.1564C24.8841 12.3987 23.7777 9.90179 21.989 8.09453C20.2003 6.28719 17.7292 5.1693 15 5.1693ZM21.2078 8.88381C19.6191 7.27854 17.4243 6.28568 15 6.28568C12.5757 6.28568 10.3808 7.27854 8.79216 8.88381C7.20345 10.489 6.22083 12.7068 6.22083 15.1564C6.22083 17.606 7.20353 19.8237 8.79216 21.4289C10.3808 23.0341 12.5757 24.027 15 24.027C17.4244 24.027 19.6192 23.0342 21.2078 21.4289C22.7965 19.8237 23.7792 17.606 23.7792 15.1564C23.7792 12.7068 22.7965 10.489 21.2078 8.88381Z" fill="#DAAA29"/>
</svg>
