<svg width="100" height="100" viewBox="0 0 100 100" fill="none" xmlns="http://www.w3.org/2000/svg">
<g clip-path="url(#clip0_5_146)">
<path d="M27.1525 65.9397V70.7034H4.89679V65.9397C4.89679 62.1058 8.01786 58.9847 11.8538 58.9847H20.1975C24.0334 58.9847 27.1525 62.1058 27.1525 65.9397Z" fill="white"/>
<path d="M61.1288 65.9397V70.7034H38.8712V65.9397C38.8712 62.1058 41.9922 58.9847 45.8281 58.9847H54.1718C58.0077 58.9847 61.1288 62.1058 61.1288 65.9397Z" fill="white"/>
<path d="M95.1031 65.9397V70.7034H72.8474V65.9397C72.8474 62.1058 75.9665 58.9847 79.8024 58.9847H88.1461C91.982 58.9847 95.1031 62.1058 95.1031 65.9397Z" fill="white"/>
<path d="M16.0254 53.2201C14.4182 53.2201 13.0958 51.8976 13.0958 50.2904V42.3163C13.0958 40.709 14.4182 39.3866 16.0254 39.3866C17.6326 39.3866 18.9551 40.709 18.9551 42.3163V50.2904C18.9551 51.8976 17.6326 53.2201 16.0254 53.2201Z" fill="white"/>
<path d="M16.0254 33.5273C14.4182 33.5273 13.0958 32.2048 13.0958 30.5976V22.6233C13.0958 21.016 14.4182 19.6936 16.0254 19.6936C17.6326 19.6936 18.9551 21.016 18.9551 22.6233V30.5976C18.9551 32.2048 17.6326 33.5273 16.0254 33.5273Z" fill="white"/>
<path d="M16.0254 13.8343C14.4182 13.8343 13.0958 12.5118 13.0958 10.9046V2.93044C13.0958 1.32323 14.4182 0.000778198 16.0254 0.000778198C17.6326 0.000778198 18.9551 1.32323 18.9551 2.93044V10.9046C18.9551 12.5118 17.6326 13.8343 16.0254 13.8343Z" fill="white"/>
<path d="M83.9745 53.2201C82.3673 53.2201 81.0449 51.8976 81.0449 50.2904V42.3163C81.0449 40.709 82.3673 39.3866 83.9745 39.3866C85.5817 39.3866 86.9042 40.709 86.9042 42.3163V50.2904C86.9042 51.8976 85.5817 53.2201 83.9745 53.2201Z" fill="white"/>
<path d="M83.9745 33.5273C82.3673 33.5273 81.0449 32.2048 81.0449 30.5976V22.6233C81.0449 21.016 82.3673 19.6936 83.9745 19.6936C85.5817 19.6936 86.9042 21.016 86.9042 22.6233V30.5976C86.9042 32.2048 85.5817 33.5273 83.9745 33.5273Z" fill="white"/>
<path d="M83.9745 13.8343C82.3673 13.8343 81.0449 12.5118 81.0449 10.9046V2.93044C81.0449 1.32323 82.3673 0.000778198 83.9745 0.000778198C85.5817 0.000778198 86.9042 1.32323 86.9042 2.93044V10.9046C86.9042 12.5118 85.5817 13.8343 83.9745 13.8343Z" fill="white"/>
<path d="M57.9687 0.0027317C54.9687 0.0027317 52.205 1.01444 50 2.7156C47.7949 1.01444 45.0313 0.0027317 42.0313 0.0027317C33.0138 -0.18672 26.4631 9.51437 29.8634 17.8014C30.1818 18.7956 32.7404 26.9478 32.7404 33.5825C32.7404 36.1314 32.3614 38.9067 31.8771 41.4106C31.0822 45.52 35.4415 48.7152 39.127 46.7328C46.5117 42.7563 50 29.2408 50 29.2408C50 29.2408 53.4882 42.7563 60.8729 46.7328C64.5585 48.7152 68.9178 45.52 68.1229 41.4106C67.6385 38.9067 67.2596 36.1314 67.2596 33.5825C67.2596 26.7271 69.992 18.2565 70.1619 17.7331C73.5096 9.45383 66.9549 -0.182814 57.9687 0.0027317Z" fill="white"/>
<path d="M0.000366211 79.4923V97.0703C0.000366211 98.6883 1.31207 100 2.93003 100H97.0699C98.6879 100 99.9996 98.6883 99.9996 97.0703V79.4923C99.9996 77.8744 98.6879 76.5627 97.0699 76.5627H2.93003C1.31207 76.5627 0.000366211 77.8744 0.000366211 79.4923ZM28.3205 91.211H14.6487C13.0307 91.211 11.719 89.8993 11.719 88.2813C11.719 86.6634 13.0307 85.3517 14.6487 85.3517H28.3205C29.9384 85.3517 31.2501 86.6634 31.2501 88.2813C31.2501 89.8993 29.9384 91.211 28.3205 91.211ZM73.6326 91.211C72.0146 91.211 70.7029 89.8993 70.7029 88.2813C70.7029 86.6634 72.0146 85.3517 73.6326 85.3517C75.2506 85.3517 76.5623 86.6634 76.5623 88.2813C76.5623 89.8993 75.2506 91.211 73.6326 91.211ZM85.3513 91.211C83.7333 91.211 82.4216 89.8993 82.4216 88.2813C82.4216 86.6634 83.7333 85.3517 85.3513 85.3517C86.9692 85.3517 88.2809 86.6634 88.2809 88.2813C88.2809 89.8993 86.9692 91.211 85.3513 91.211Z" fill="white"/>
</g>
<defs>
<clipPath id="clip0_5_146">
<rect width="100" height="100" fill="white"/>
</clipPath>
</defs>
</svg>
