<svg width="100" height="100" viewBox="0 0 100 100" fill="none" xmlns="http://www.w3.org/2000/svg">
<g clip-path="url(#clip0_5_133)">
<path d="M16.6666 37.5C23.5702 37.5 29.1666 31.9036 29.1666 25C29.1666 18.0964 23.5702 12.5 16.6666 12.5C9.76307 12.5 4.16663 18.0964 4.16663 25C4.16663 31.9036 9.76307 37.5 16.6666 37.5Z" fill="white"/>
<path d="M30.375 46.125C26.1812 48.7419 22.7225 52.3831 20.3243 56.7057C17.9261 61.0283 16.6674 65.89 16.6667 70.8333H8.33333C6.12522 70.8267 4.00944 69.9466 2.44806 68.3853C0.886686 66.8239 0.0065947 64.7081 0 62.5L0 54.1667C0.00989204 50.8545 1.33003 47.6808 3.67209 45.3387C6.01416 42.9967 9.18784 41.6765 12.5 41.6667H20.8333C22.6524 41.6708 24.4486 42.0718 26.0966 42.8419C27.7446 43.6119 29.2048 44.7323 30.375 46.125Z" fill="white"/>
<path d="M83.3334 37.5C90.2369 37.5 95.8334 31.9036 95.8334 25C95.8334 18.0964 90.2369 12.5 83.3334 12.5C76.4298 12.5 70.8334 18.0964 70.8334 25C70.8334 31.9036 76.4298 37.5 83.3334 37.5Z" fill="white"/>
<path d="M100 54.1667V62.5C99.9934 64.7081 99.1133 66.8239 97.5519 68.3853C95.9906 69.9466 93.8748 70.8267 91.6667 70.8333H83.3333C83.3326 65.89 82.0739 61.0283 79.6757 56.7057C77.2775 52.3831 73.8188 48.7419 69.625 46.125C70.7952 44.7323 72.2554 43.6119 73.9034 42.8419C75.5514 42.0718 77.3476 41.6708 79.1667 41.6667H87.5C90.8122 41.6765 93.9858 42.9967 96.3279 45.3387C98.67 47.6808 99.9901 50.8545 100 54.1667Z" fill="white"/>
<path d="M50 45.8333C59.2048 45.8333 66.6667 38.3714 66.6667 29.1667C66.6667 19.9619 59.2048 12.5 50 12.5C40.7953 12.5 33.3334 19.9619 33.3334 29.1667C33.3334 38.3714 40.7953 45.8333 50 45.8333Z" fill="white"/>
<path d="M75 70.8333V75C74.9901 78.3122 73.67 81.4858 71.3279 83.8279C68.9858 86.17 65.8122 87.4901 62.5 87.5H37.5C34.1878 87.4901 31.0142 86.17 28.6721 83.8279C26.33 81.4858 25.0099 78.3122 25 75V70.8333C25 65.308 27.1949 60.0089 31.1019 56.1019C35.0089 52.1949 40.308 50 45.8333 50H54.1667C59.692 50 64.991 52.1949 68.8981 56.1019C72.8051 60.0089 75 65.308 75 70.8333Z" fill="white"/>
</g>
<defs>
<clipPath id="clip0_5_133">
<rect width="100" height="100" fill="white"/>
</clipPath>
</defs>
</svg>
